<?xml version="1.0" encoding="us-ascii" standalone="no"?><svg xmlns="http://www.w3.org/2000/svg" xmlns:xlink="http://www.w3.org/1999/xlink" contentStyleType="text/css" height="540px" preserveAspectRatio="none" style="width:537px;height:540px;background:#FFFFFF;" version="1.1" viewBox="0 0 537 540" width="537px" zoomAndPan="magnify"><defs/><g><!--class Matriz--><g id="elem_Matriz"><rect codeLine="1" fill="#F1F1F1" height="80.5938" id="Matriz" rx="2.5" ry="2.5" style="stroke:#181818;stroke-width:0.5;" width="266" x="162.5" y="279"/><ellipse cx="268.75" cy="295" fill="#ADD1B2" rx="11" ry="11" style="stroke:#181818;stroke-width:1.0;"/><path d="M271.0938,290.6719 C270.1563,290.2344 269.5625,290.0938 268.6875,290.0938 C266.0625,290.0938 264.0625,292.1719 264.0625,294.8906 L264.0625,296.0156 C264.0625,298.5938 266.1719,300.4844 269.0625,300.4844 C270.2813,300.4844 271.4375,300.1875 272.1875,299.6406 C272.7656,299.2344 273.0938,298.7813 273.0938,298.3906 C273.0938,297.9375 272.7031,297.5469 272.2344,297.5469 C272.0156,297.5469 271.8125,297.625 271.625,297.8125 C271.1719,298.2969 271.1719,298.2969 270.9844,298.3906 C270.5625,298.6563 269.875,298.7813 269.1094,298.7813 C267.0625,298.7813 265.7656,297.6875 265.7656,295.9844 L265.7656,294.8906 C265.7656,293.1094 267.0156,291.7969 268.75,291.7969 C269.3281,291.7969 269.9375,291.9531 270.4063,292.2031 C270.8906,292.4844 271.0625,292.7031 271.1563,293.1094 C271.2188,293.5156 271.25,293.6406 271.3906,293.7656 C271.5313,293.9063 271.7656,294.0156 271.9844,294.0156 C272.25,294.0156 272.5156,293.875 272.6875,293.6563 C272.7969,293.5 272.8281,293.3125 272.8281,292.8906 L272.8281,291.4688 C272.8281,291.0313 272.8125,290.9063 272.7188,290.75 C272.5625,290.4844 272.2813,290.3438 271.9844,290.3438 C271.6875,290.3438 271.4844,290.4375 271.2656,290.75 L271.0938,290.6719 Z " fill="#000000"/><text fill="#000000" font-family="sans-serif" font-size="14" lengthAdjust="spacing" textLength="45" x="289.25" y="299.8467">Matriz</text><line style="stroke:#181818;stroke-width:0.5;" x1="163.5" x2="427.5" y1="311" y2="311"/><rect fill="none" height="6" style="stroke:#C82930;stroke-width:1.0;" width="6" x="170.5" y="321.6484"/><text fill="#000000" font-family="sans-serif" font-size="14" lengthAdjust="spacing" textLength="178" x="182.5" y="327.9951">elementos: List[List[int]]</text><line style="stroke:#181818;stroke-width:0.5;" x1="163.5" x2="427.5" y1="335.2969" y2="335.2969"/><ellipse cx="173.5" cy="348.9453" fill="#84BE84" rx="3" ry="3" style="stroke:#038048;stroke-width:1.0;"/><text fill="#000000" font-family="sans-serif" font-size="14" lengthAdjust="spacing" textLength="240" x="182.5" y="352.292">__init__(elementos: List[List[int]])</text></g><!--class Transpuesta--><g id="elem_Transpuesta"><rect codeLine="6" fill="#F1F1F1" height="96.8906" id="Transpuesta" rx="2.5" ry="2.5" style="stroke:#181818;stroke-width:0.5;" width="237" x="7" y="437"/><ellipse cx="77.25" cy="453" fill="#ADD1B2" rx="11" ry="11" style="stroke:#181818;stroke-width:1.0;"/><path d="M79.5938,448.6719 C78.6563,448.2344 78.0625,448.0938 77.1875,448.0938 C74.5625,448.0938 72.5625,450.1719 72.5625,452.8906 L72.5625,454.0156 C72.5625,456.5938 74.6719,458.4844 77.5625,458.4844 C78.7813,458.4844 79.9375,458.1875 80.6875,457.6406 C81.2656,457.2344 81.5938,456.7813 81.5938,456.3906 C81.5938,455.9375 81.2031,455.5469 80.7344,455.5469 C80.5156,455.5469 80.3125,455.625 80.125,455.8125 C79.6719,456.2969 79.6719,456.2969 79.4844,456.3906 C79.0625,456.6563 78.375,456.7813 77.6094,456.7813 C75.5625,456.7813 74.2656,455.6875 74.2656,453.9844 L74.2656,452.8906 C74.2656,451.1094 75.5156,449.7969 77.25,449.7969 C77.8281,449.7969 78.4375,449.9531 78.9063,450.2031 C79.3906,450.4844 79.5625,450.7031 79.6563,451.1094 C79.7188,451.5156 79.75,451.6406 79.8906,451.7656 C80.0313,451.9063 80.2656,452.0156 80.4844,452.0156 C80.75,452.0156 81.0156,451.875 81.1875,451.6563 C81.2969,451.5 81.3281,451.3125 81.3281,450.8906 L81.3281,449.4688 C81.3281,449.0313 81.3125,448.9063 81.2188,448.75 C81.0625,448.4844 80.7813,448.3438 80.4844,448.3438 C80.1875,448.3438 79.9844,448.4375 79.7656,448.75 L79.5938,448.6719 Z " fill="#000000"/><text fill="#000000" font-family="sans-serif" font-size="14" lengthAdjust="spacing" textLength="88" x="97.75" y="457.8467">Transpuesta</text><line style="stroke:#181818;stroke-width:0.5;" x1="8" x2="243" y1="469" y2="469"/><rect fill="none" height="6" style="stroke:#C82930;stroke-width:1.0;" width="6" x="15" y="479.6484"/><text fill="#000000" font-family="sans-serif" font-size="14" lengthAdjust="spacing" textLength="101" x="27" y="485.9951">matriz: Matriz</text><line style="stroke:#181818;stroke-width:0.5;" x1="8" x2="243" y1="493.2969" y2="493.2969"/><ellipse cx="18" cy="506.9453" fill="#84BE84" rx="3" ry="3" style="stroke:#038048;stroke-width:1.0;"/><text fill="#000000" font-family="sans-serif" font-size="14" lengthAdjust="spacing" textLength="163" x="27" y="510.292">__init__(matriz: Matriz)</text><ellipse cx="18" cy="523.2422" fill="#84BE84" rx="3" ry="3" style="stroke:#038048;stroke-width:1.0;"/><text fill="#000000" font-family="sans-serif" font-size="14" lengthAdjust="spacing" textLength="211" x="27" y="526.5889">calcular_transpuesta(): Matriz</text></g><!--class Imprimir--><g id="elem_Imprimir"><rect codeLine="12" fill="#F1F1F1" height="96.8906" id="Imprimir" rx="2.5" ry="2.5" style="stroke:#181818;stroke-width:0.5;" width="189" x="341" y="437"/><ellipse cx="400.25" cy="453" fill="#ADD1B2" rx="11" ry="11" style="stroke:#181818;stroke-width:1.0;"/><path d="M402.5938,448.6719 C401.6563,448.2344 401.0625,448.0938 400.1875,448.0938 C397.5625,448.0938 395.5625,450.1719 395.5625,452.8906 L395.5625,454.0156 C395.5625,456.5938 397.6719,458.4844 400.5625,458.4844 C401.7813,458.4844 402.9375,458.1875 403.6875,457.6406 C404.2656,457.2344 404.5938,456.7813 404.5938,456.3906 C404.5938,455.9375 404.2031,455.5469 403.7344,455.5469 C403.5156,455.5469 403.3125,455.625 403.125,455.8125 C402.6719,456.2969 402.6719,456.2969 402.4844,456.3906 C402.0625,456.6563 401.375,456.7813 400.6094,456.7813 C398.5625,456.7813 397.2656,455.6875 397.2656,453.9844 L397.2656,452.8906 C397.2656,451.1094 398.5156,449.7969 400.25,449.7969 C400.8281,449.7969 401.4375,449.9531 401.9063,450.2031 C402.3906,450.4844 402.5625,450.7031 402.6563,451.1094 C402.7188,451.5156 402.75,451.6406 402.8906,451.7656 C403.0313,451.9063 403.2656,452.0156 403.4844,452.0156 C403.75,452.0156 404.0156,451.875 404.1875,451.6563 C404.2969,451.5 404.3281,451.3125 404.3281,450.8906 L404.3281,449.4688 C404.3281,449.0313 404.3125,448.9063 404.2188,448.75 C404.0625,448.4844 403.7813,448.3438 403.4844,448.3438 C403.1875,448.3438 402.9844,448.4375 402.7656,448.75 L402.5938,448.6719 Z " fill="#000000"/><text fill="#000000" font-family="sans-serif" font-size="14" lengthAdjust="spacing" textLength="62" x="420.75" y="457.8467">Imprimir</text><line style="stroke:#181818;stroke-width:0.5;" x1="342" x2="529" y1="469" y2="469"/><rect fill="none" height="6" style="stroke:#C82930;stroke-width:1.0;" width="6" x="349" y="479.6484"/><text fill="#000000" font-family="sans-serif" font-size="14" lengthAdjust="spacing" textLength="101" x="361" y="485.9951">matriz: Matriz</text><line style="stroke:#181818;stroke-width:0.5;" x1="342" x2="529" y1="493.2969" y2="493.2969"/><ellipse cx="352" cy="506.9453" fill="#84BE84" rx="3" ry="3" style="stroke:#038048;stroke-width:1.0;"/><text fill="#000000" font-family="sans-serif" font-size="14" lengthAdjust="spacing" textLength="163" x="361" y="510.292">__init__(matriz: Matriz)</text><ellipse cx="352" cy="523.2422" fill="#84BE84" rx="3" ry="3" style="stroke:#038048;stroke-width:1.0;"/><text fill="#000000" font-family="sans-serif" font-size="14" lengthAdjust="spacing" textLength="72" x="361" y="526.5889">imprimir()</text></g><!--class Lanzador--><g id="elem_Lanzador"><rect codeLine="18" fill="#F1F1F1" height="194.6719" id="Lanzador" rx="2.5" ry="2.5" style="stroke:#181818;stroke-width:0.5;" width="209" x="191" y="7"/><ellipse cx="258.75" cy="23" fill="#ADD1B2" rx="11" ry="11" style="stroke:#181818;stroke-width:1.0;"/><path d="M261.0938,18.6719 C260.1563,18.2344 259.5625,18.0938 258.6875,18.0938 C256.0625,18.0938 254.0625,20.1719 254.0625,22.8906 L254.0625,24.0156 C254.0625,26.5938 256.1719,28.4844 259.0625,28.4844 C260.2813,28.4844 261.4375,28.1875 262.1875,27.6406 C262.7656,27.2344 263.0938,26.7813 263.0938,26.3906 C263.0938,25.9375 262.7031,25.5469 262.2344,25.5469 C262.0156,25.5469 261.8125,25.625 261.625,25.8125 C261.1719,26.2969 261.1719,26.2969 260.9844,26.3906 C260.5625,26.6563 259.875,26.7813 259.1094,26.7813 C257.0625,26.7813 255.7656,25.6875 255.7656,23.9844 L255.7656,22.8906 C255.7656,21.1094 257.0156,19.7969 258.75,19.7969 C259.3281,19.7969 259.9375,19.9531 260.4063,20.2031 C260.8906,20.4844 261.0625,20.7031 261.1563,21.1094 C261.2188,21.5156 261.25,21.6406 261.3906,21.7656 C261.5313,21.9063 261.7656,22.0156 261.9844,22.0156 C262.25,22.0156 262.5156,21.875 262.6875,21.6563 C262.7969,21.5 262.8281,21.3125 262.8281,20.8906 L262.8281,19.4688 C262.8281,19.0313 262.8125,18.9063 262.7188,18.75 C262.5625,18.4844 262.2813,18.3438 261.9844,18.3438 C261.6875,18.3438 261.4844,18.4375 261.2656,18.75 L261.0938,18.6719 Z " fill="#000000"/><text fill="#000000" font-family="sans-serif" font-size="14" lengthAdjust="spacing" textLength="65" x="279.25" y="27.8467">Lanzador</text><line style="stroke:#181818;stroke-width:0.5;" x1="192" x2="399" y1="39" y2="39"/><rect fill="none" height="6" style="stroke:#C82930;stroke-width:1.0;" width="6" x="199" y="49.6484"/><text fill="#000000" font-family="sans-serif" font-size="14" lengthAdjust="spacing" textLength="178" x="211" y="55.9951">elementos: List[List[int]]</text><rect fill="none" height="6" style="stroke:#C82930;stroke-width:1.0;" width="6" x="199" y="65.9453"/><text fill="#000000" font-family="sans-serif" font-size="14" lengthAdjust="spacing" textLength="127" x="211" y="72.292">cantidad_filas: int</text><rect fill="none" height="6" style="stroke:#C82930;stroke-width:1.0;" width="6" x="199" y="82.2422"/><text fill="#000000" font-family="sans-serif" font-size="14" lengthAdjust="spacing" textLength="165" x="211" y="88.5889">cantidad_columnas: int</text><rect fill="none" height="6" style="stroke:#C82930;stroke-width:1.0;" width="6" x="199" y="98.5391"/><text fill="#000000" font-family="sans-serif" font-size="14" lengthAdjust="spacing" textLength="101" x="211" y="104.8857">matriz: Matriz</text><rect fill="none" height="6" style="stroke:#C82930;stroke-width:1.0;" width="6" x="199" y="114.8359"/><text fill="#000000" font-family="sans-serif" font-size="14" lengthAdjust="spacing" textLength="183" x="211" y="121.1826">transpuesta: Transpuesta</text><rect fill="none" height="6" style="stroke:#C82930;stroke-width:1.0;" width="6" x="199" y="131.1328"/><text fill="#000000" font-family="sans-serif" font-size="14" lengthAdjust="spacing" textLength="133" x="211" y="137.4795">imprimir: Imprimir</text><line style="stroke:#181818;stroke-width:0.5;" x1="192" x2="399" y1="144.7813" y2="144.7813"/><ellipse cx="202" cy="158.4297" fill="#84BE84" rx="3" ry="3" style="stroke:#038048;stroke-width:1.0;"/><text fill="#000000" font-family="sans-serif" font-size="14" lengthAdjust="spacing" textLength="62" x="211" y="161.7764">__init__()</text><ellipse cx="202" cy="174.7266" fill="#84BE84" rx="3" ry="3" style="stroke:#038048;stroke-width:1.0;"/><text fill="#000000" font-family="sans-serif" font-size="14" lengthAdjust="spacing" textLength="101" x="211" y="178.0732">crear_matriz()</text><ellipse cx="202" cy="191.0234" fill="#84BE84" rx="3" ry="3" style="stroke:#038048;stroke-width:1.0;"/><text fill="#000000" font-family="sans-serif" font-size="14" lengthAdjust="spacing" textLength="53" x="211" y="194.3701">lanzar()</text></g><!--link Matriz to Transpuesta--><g id="link_Matriz_Transpuesta"><path codeLine="30" d="M254.348,360.2 C230.371,383.33 199.984,412.645 174.742,436.9956 " fill="none" id="Matriz-Transpuesta" style="stroke:#181818;stroke-width:1.0;"/><text fill="#000000" font-family="sans-serif" font-size="13" lengthAdjust="spacing" textLength="46" x="221.5" y="403.0669">&#171;uses&#187;</text></g><!--link Matriz to Imprimir--><g id="link_Matriz_Imprimir"><path codeLine="31" d="M329.39,360.2 C349.136,383.33 374.16,412.645 394.947,436.9956 " fill="none" id="Matriz-Imprimir" style="stroke:#181818;stroke-width:1.0;"/><text fill="#000000" font-family="sans-serif" font-size="13" lengthAdjust="spacing" textLength="46" x="366.5" y="403.0669">&#171;uses&#187;</text></g><!--link Lanzador to Matriz--><g id="link_Lanzador_Matriz"><path codeLine="32" d="M295.5,202.029 C295.5,229.106 295.5,257.052 295.5,278.78 " fill="none" id="Lanzador-Matriz" style="stroke:#181818;stroke-width:1.0;"/><text fill="#000000" font-family="sans-serif" font-size="13" lengthAdjust="spacing" textLength="46" x="296.5" y="245.0669">&#171;uses&#187;</text></g><!--link Lanzador to Transpuesta--><g id="link_Lanzador_Transpuesta"><path codeLine="33" d="M190.794,169.249 C153.837,197.779 116.521,234.983 96.5,279 C73.5268,329.508 88.6877,393.614 104.4161,436.6808 " fill="none" id="Lanzador-Transpuesta" style="stroke:#181818;stroke-width:1.0;"/><text fill="#000000" font-family="sans-serif" font-size="13" lengthAdjust="spacing" textLength="46" x="97.5" y="324.0669">&#171;uses&#187;</text></g><!--link Lanzador to Imprimir--><g id="link_Lanzador_Imprimir"><path codeLine="34" d="M400.239,201.926 C419.157,225.152 436.143,251.325 446.5,279 C465.721,330.364 457.937,394.015 448.622,436.7513 " fill="none" id="Lanzador-Imprimir" style="stroke:#181818;stroke-width:1.0;"/><text fill="#000000" font-family="sans-serif" font-size="13" lengthAdjust="spacing" textLength="46" x="458.5" y="324.0669">&#171;uses&#187;</text></g><!--SRC=[dL7DYiCW4BxdAUQOK7m1ARqNqjlUbYA3iJ2W9gYvfEoxh-jQg-m6IYyU_6Q-lv4QlOSB1aSRt3i01aehesoOFOUHVFXC3zbmlKRu04AGfI14lpytT5zT9nFpXqFhbrNvW9dU92sUDLlA5XiIA57BLQCJuKdL3sM_A9tDuiYGUrE6ydfVcH_HRZZDxfLYM3Hg0qquYHl5RGuHQV_bh5TZQ-YFIGPLIbwtby27ILxIji5oOqx5kdwvyvV-IPApvMCprXo7m_6uUkLFfsgWT5gXfPI8vyaTT8U-7lb7u1i0]--></g></svg>