<?xml version="1.0" encoding="us-ascii" standalone="no"?><svg xmlns="http://www.w3.org/2000/svg" xmlns:xlink="http://www.w3.org/1999/xlink" contentStyleType="text/css" height="134px" preserveAspectRatio="none" style="width:287px;height:134px;background:#FFFFFF;" version="1.1" viewBox="0 0 287 134" width="287px" zoomAndPan="magnify"><defs/><g><!--class Matriz--><g id="elem_Matriz"><rect codeLine="1" fill="#F1F1F1" height="113.1875" id="Matriz" rx="2.5" ry="2.5" style="stroke:#181818;stroke-width:0.5;" width="266" x="7" y="7"/><ellipse cx="113.25" cy="23" fill="#ADD1B2" rx="11" ry="11" style="stroke:#181818;stroke-width:1.0;"/><path d="M115.5938,18.6719 C114.6563,18.2344 114.0625,18.0938 113.1875,18.0938 C110.5625,18.0938 108.5625,20.1719 108.5625,22.8906 L108.5625,24.0156 C108.5625,26.5938 110.6719,28.4844 113.5625,28.4844 C114.7813,28.4844 115.9375,28.1875 116.6875,27.6406 C117.2656,27.2344 117.5938,26.7813 117.5938,26.3906 C117.5938,25.9375 117.2031,25.5469 116.7344,25.5469 C116.5156,25.5469 116.3125,25.625 116.125,25.8125 C115.6719,26.2969 115.6719,26.2969 115.4844,26.3906 C115.0625,26.6563 114.375,26.7813 113.6094,26.7813 C111.5625,26.7813 110.2656,25.6875 110.2656,23.9844 L110.2656,22.8906 C110.2656,21.1094 111.5156,19.7969 113.25,19.7969 C113.8281,19.7969 114.4375,19.9531 114.9063,20.2031 C115.3906,20.4844 115.5625,20.7031 115.6563,21.1094 C115.7188,21.5156 115.75,21.6406 115.8906,21.7656 C116.0313,21.9063 116.2656,22.0156 116.4844,22.0156 C116.75,22.0156 117.0156,21.875 117.1875,21.6563 C117.2969,21.5 117.3281,21.3125 117.3281,20.8906 L117.3281,19.4688 C117.3281,19.0313 117.3125,18.9063 117.2188,18.75 C117.0625,18.4844 116.7813,18.3438 116.4844,18.3438 C116.1875,18.3438 115.9844,18.4375 115.7656,18.75 L115.5938,18.6719 Z " fill="#000000"/><text fill="#000000" font-family="sans-serif" font-size="14" lengthAdjust="spacing" textLength="45" x="133.75" y="27.8467">Matriz</text><line style="stroke:#181818;stroke-width:0.5;" x1="8" x2="272" y1="39" y2="39"/><rect fill="none" height="6" style="stroke:#C82930;stroke-width:1.0;" width="6" x="15" y="49.6484"/><text fill="#000000" font-family="sans-serif" font-size="14" lengthAdjust="spacing" textLength="178" x="27" y="55.9951">elementos: List[List[int]]</text><line style="stroke:#181818;stroke-width:0.5;" x1="8" x2="272" y1="63.2969" y2="63.2969"/><ellipse cx="18" cy="76.9453" fill="#84BE84" rx="3" ry="3" style="stroke:#038048;stroke-width:1.0;"/><text fill="#000000" font-family="sans-serif" font-size="14" lengthAdjust="spacing" textLength="240" x="27" y="80.292">__init__(elementos: List[List[int]])</text><ellipse cx="18" cy="93.2422" fill="#84BE84" rx="3" ry="3" style="stroke:#038048;stroke-width:1.0;"/><text fill="#000000" font-family="sans-serif" font-size="14" lengthAdjust="spacing" textLength="111" x="27" y="96.5889">imprimir(): void</text><ellipse cx="18" cy="109.5391" fill="#84BE84" rx="3" ry="3" style="stroke:#038048;stroke-width:1.0;"/><text fill="#000000" font-family="sans-serif" font-size="14" lengthAdjust="spacing" textLength="216" x="27" y="112.8857">obtener_transpuesta(): Matriz</text></g><!--SRC=[Iyv9B2vMy4qiASgiKgZcKb3GLKZDISrDpIl9BxPIyCaiBea64vbv9R6nG6bjXVZupBpCalXu3TpgDC4ACtCBYZ9pCuiqDAqKol8pKy22-KabgNcfHV4bHObvnGMbgSKbYI1vY0EuQW40]--></g></svg>